<mxfile host="app.diagrams.net" modified="2023-06-11T23:22:53.378Z" agent="Mozilla/5.0 (Macintosh; Intel Mac OS X 10_15_7) AppleWebKit/537.36 (KHTML, like Gecko) Chrome/112.0.0.0 Safari/537.36" etag="TLhkH3RpzUx21xP-5AKg" version="21.1.1" type="device">
  <diagram name="Page-1" id="kNhSwq7wsO6J637tmKPx">
    <mxGraphModel dx="2501" dy="701" grid="1" gridSize="10" guides="1" tooltips="1" connect="1" arrows="1" fold="1" page="1" pageScale="1" pageWidth="827" pageHeight="1169" math="0" shadow="0">
      <root>
        <mxCell id="0" />
        <mxCell id="1" parent="0" />
        <mxCell id="TtMKmNu47GIyOLjUPErS-10" value="VPC" style="sketch=0;outlineConnect=0;gradientColor=none;html=1;whiteSpace=wrap;fontSize=12;fontStyle=0;shape=mxgraph.aws4.group;grIcon=mxgraph.aws4.group_vpc;strokeColor=#B6BABF;fillColor=none;verticalAlign=top;align=left;spacingLeft=30;fontColor=#B6BABF;dashed=0;" vertex="1" parent="1">
          <mxGeometry x="70" y="570" width="640" height="320" as="geometry" />
        </mxCell>
        <mxCell id="TtMKmNu47GIyOLjUPErS-2" value="Amazon S3" style="sketch=0;outlineConnect=0;fontColor=#232F3E;gradientColor=none;strokeColor=#ffffff;fillColor=#232F3E;dashed=0;verticalLabelPosition=middle;verticalAlign=bottom;align=center;html=1;whiteSpace=wrap;fontSize=10;fontStyle=1;spacing=3;shape=mxgraph.aws4.productIcon;prIcon=mxgraph.aws4.s3;" vertex="1" parent="1">
          <mxGeometry x="240" y="790" width="80" height="100" as="geometry" />
        </mxCell>
        <mxCell id="TtMKmNu47GIyOLjUPErS-3" value="AWS Identity and Access Management" style="sketch=0;outlineConnect=0;fontColor=#232F3E;gradientColor=none;strokeColor=#ffffff;fillColor=#232F3E;dashed=0;verticalLabelPosition=middle;verticalAlign=bottom;align=center;html=1;whiteSpace=wrap;fontSize=10;fontStyle=1;spacing=3;shape=mxgraph.aws4.productIcon;prIcon=mxgraph.aws4.identity_and_access_management;" vertex="1" parent="1">
          <mxGeometry x="200" y="440" width="80" height="120" as="geometry" />
        </mxCell>
        <mxCell id="TtMKmNu47GIyOLjUPErS-5" value="Amazon API Gateway" style="sketch=0;outlineConnect=0;fontColor=#232F3E;gradientColor=none;strokeColor=#ffffff;fillColor=#232F3E;dashed=0;verticalLabelPosition=middle;verticalAlign=bottom;align=center;html=1;whiteSpace=wrap;fontSize=10;fontStyle=1;spacing=3;shape=mxgraph.aws4.productIcon;prIcon=mxgraph.aws4.api_gateway;" vertex="1" parent="1">
          <mxGeometry x="480" y="640" width="80" height="110" as="geometry" />
        </mxCell>
        <mxCell id="TtMKmNu47GIyOLjUPErS-6" value="Endpoints" style="sketch=0;outlineConnect=0;fontColor=#232F3E;gradientColor=none;strokeColor=#232F3E;fillColor=#ffffff;dashed=0;verticalLabelPosition=bottom;verticalAlign=top;align=center;html=1;fontSize=12;fontStyle=0;aspect=fixed;shape=mxgraph.aws4.resourceIcon;resIcon=mxgraph.aws4.endpoints;" vertex="1" parent="1">
          <mxGeometry x="590" y="585" width="60" height="60" as="geometry" />
        </mxCell>
        <mxCell id="TtMKmNu47GIyOLjUPErS-7" value="Endpoints" style="sketch=0;outlineConnect=0;fontColor=#232F3E;gradientColor=none;strokeColor=#232F3E;fillColor=#ffffff;dashed=0;verticalLabelPosition=bottom;verticalAlign=top;align=center;html=1;fontSize=12;fontStyle=0;aspect=fixed;shape=mxgraph.aws4.resourceIcon;resIcon=mxgraph.aws4.endpoints;" vertex="1" parent="1">
          <mxGeometry x="590" y="695" width="60" height="60" as="geometry" />
        </mxCell>
        <mxCell id="TtMKmNu47GIyOLjUPErS-8" value="Amazon CloudWatch" style="sketch=0;outlineConnect=0;fontColor=#232F3E;gradientColor=none;strokeColor=#ffffff;fillColor=#232F3E;dashed=0;verticalLabelPosition=middle;verticalAlign=bottom;align=center;html=1;whiteSpace=wrap;fontSize=10;fontStyle=1;spacing=3;shape=mxgraph.aws4.productIcon;prIcon=mxgraph.aws4.cloudwatch;" vertex="1" parent="1">
          <mxGeometry x="320" y="440" width="80" height="110" as="geometry" />
        </mxCell>
        <mxCell id="TtMKmNu47GIyOLjUPErS-28" style="edgeStyle=orthogonalEdgeStyle;rounded=0;orthogonalLoop=1;jettySize=auto;html=1;" edge="1" parent="1" source="TtMKmNu47GIyOLjUPErS-9" target="TtMKmNu47GIyOLjUPErS-2">
          <mxGeometry relative="1" as="geometry" />
        </mxCell>
        <mxCell id="TtMKmNu47GIyOLjUPErS-29" style="edgeStyle=orthogonalEdgeStyle;rounded=0;orthogonalLoop=1;jettySize=auto;html=1;" edge="1" parent="1" source="TtMKmNu47GIyOLjUPErS-9" target="TtMKmNu47GIyOLjUPErS-12">
          <mxGeometry relative="1" as="geometry" />
        </mxCell>
        <mxCell id="TtMKmNu47GIyOLjUPErS-9" value="Amazon RDS" style="sketch=0;outlineConnect=0;fontColor=#232F3E;gradientColor=none;strokeColor=#ffffff;fillColor=#232F3E;dashed=0;verticalLabelPosition=middle;verticalAlign=bottom;align=center;html=1;whiteSpace=wrap;fontSize=10;fontStyle=1;spacing=3;shape=mxgraph.aws4.productIcon;prIcon=mxgraph.aws4.rds;" vertex="1" parent="1">
          <mxGeometry x="240" y="640" width="80" height="100" as="geometry" />
        </mxCell>
        <mxCell id="TtMKmNu47GIyOLjUPErS-32" style="edgeStyle=orthogonalEdgeStyle;rounded=0;orthogonalLoop=1;jettySize=auto;html=1;" edge="1" parent="1" source="TtMKmNu47GIyOLjUPErS-12" target="TtMKmNu47GIyOLjUPErS-5">
          <mxGeometry relative="1" as="geometry" />
        </mxCell>
        <mxCell id="TtMKmNu47GIyOLjUPErS-12" value="AWS Lambda" style="sketch=0;outlineConnect=0;fontColor=#232F3E;gradientColor=none;strokeColor=#ffffff;fillColor=#232F3E;dashed=0;verticalLabelPosition=middle;verticalAlign=bottom;align=center;html=1;whiteSpace=wrap;fontSize=10;fontStyle=1;spacing=3;shape=mxgraph.aws4.productIcon;prIcon=mxgraph.aws4.lambda;" vertex="1" parent="1">
          <mxGeometry x="360" y="640" width="80" height="100" as="geometry" />
        </mxCell>
        <mxCell id="TtMKmNu47GIyOLjUPErS-19" value="" style="group" vertex="1" connectable="0" parent="1">
          <mxGeometry x="-80" y="710" width="130" height="130" as="geometry" />
        </mxCell>
        <mxCell id="TtMKmNu47GIyOLjUPErS-17" value="" style="sketch=0;html=1;aspect=fixed;strokeColor=none;shadow=0;align=center;fillColor=#2D9C5E;verticalAlign=top;labelPosition=center;verticalLabelPosition=bottom;shape=mxgraph.gcp2.external_data_resource" vertex="1" parent="TtMKmNu47GIyOLjUPErS-19">
          <mxGeometry x="25.5" width="79" height="100" as="geometry" />
        </mxCell>
        <mxCell id="TtMKmNu47GIyOLjUPErS-18" value="external data source" style="text;html=1;align=center;verticalAlign=middle;resizable=0;points=[];autosize=1;strokeColor=none;fillColor=none;" vertex="1" parent="TtMKmNu47GIyOLjUPErS-19">
          <mxGeometry y="100" width="130" height="30" as="geometry" />
        </mxCell>
        <mxCell id="TtMKmNu47GIyOLjUPErS-20" value="" style="group" vertex="1" connectable="0" parent="1">
          <mxGeometry x="-80" y="580" width="130" height="125" as="geometry" />
        </mxCell>
        <mxCell id="TtMKmNu47GIyOLjUPErS-13" value="" style="sketch=0;html=1;aspect=fixed;strokeColor=none;shadow=0;align=center;fillColor=#2D9C5E;verticalAlign=top;labelPosition=center;verticalLabelPosition=bottom;shape=mxgraph.gcp2.external_data_center" vertex="1" parent="TtMKmNu47GIyOLjUPErS-20">
          <mxGeometry x="25" width="77" height="100" as="geometry" />
        </mxCell>
        <mxCell id="TtMKmNu47GIyOLjUPErS-14" value="external datasource&lt;br&gt;" style="text;html=1;align=center;verticalAlign=middle;resizable=0;points=[];autosize=1;strokeColor=none;fillColor=none;" vertex="1" parent="TtMKmNu47GIyOLjUPErS-20">
          <mxGeometry y="95" width="130" height="30" as="geometry" />
        </mxCell>
        <mxCell id="TtMKmNu47GIyOLjUPErS-27" style="edgeStyle=orthogonalEdgeStyle;rounded=0;orthogonalLoop=1;jettySize=auto;html=1;" edge="1" parent="1" source="TtMKmNu47GIyOLjUPErS-21" target="TtMKmNu47GIyOLjUPErS-9">
          <mxGeometry relative="1" as="geometry" />
        </mxCell>
        <mxCell id="TtMKmNu47GIyOLjUPErS-21" value="AWS Lambda" style="sketch=0;outlineConnect=0;fontColor=#232F3E;gradientColor=none;strokeColor=#ffffff;fillColor=#232F3E;dashed=0;verticalLabelPosition=middle;verticalAlign=bottom;align=center;html=1;whiteSpace=wrap;fontSize=10;fontStyle=1;spacing=3;shape=mxgraph.aws4.productIcon;prIcon=mxgraph.aws4.lambda;" vertex="1" parent="1">
          <mxGeometry x="120" y="640" width="80" height="100" as="geometry" />
        </mxCell>
        <mxCell id="TtMKmNu47GIyOLjUPErS-23" style="edgeStyle=orthogonalEdgeStyle;rounded=0;orthogonalLoop=1;jettySize=auto;html=1;" edge="1" parent="1" source="TtMKmNu47GIyOLjUPErS-13" target="TtMKmNu47GIyOLjUPErS-21">
          <mxGeometry relative="1" as="geometry" />
        </mxCell>
        <mxCell id="TtMKmNu47GIyOLjUPErS-24" style="edgeStyle=orthogonalEdgeStyle;rounded=0;orthogonalLoop=1;jettySize=auto;html=1;" edge="1" parent="1" source="TtMKmNu47GIyOLjUPErS-17" target="TtMKmNu47GIyOLjUPErS-21">
          <mxGeometry relative="1" as="geometry" />
        </mxCell>
      </root>
    </mxGraphModel>
  </diagram>
</mxfile>
